<svg width="26" height="24" viewBox="0 0 26 24" fill="none" xmlns="http://www.w3.org/2000/svg">
<path d="M0.109375 19.2441V4.6543C0.109375 4.41992 0.18099 4.23438 0.324219 4.09766C0.467448 3.95443 0.65625 3.88281 0.890625 3.88281H25.1191C25.3535 3.88281 25.5391 3.95443 25.6758 4.09766C25.819 4.23438 25.8906 4.41992 25.8906 4.6543V19.2441C25.8906 19.4785 25.819 19.6673 25.6758 19.8105C25.5391 19.9538 25.3535 20.0254 25.1191 20.0254H0.890625C0.65625 20.0254 0.467448 19.9538 0.324219 19.8105C0.18099 19.6673 0.109375 19.4785 0.109375 19.2441ZM1.68164 18.1699C1.68164 18.3587 1.77604 18.4531 1.96484 18.4531H24.0352C24.224 18.4531 24.3184 18.3587 24.3184 18.1699V5.73828C24.3184 5.54948 24.224 5.45508 24.0352 5.45508H1.96484C1.77604 5.45508 1.68164 5.54948 1.68164 5.73828V18.1699ZM2.73633 16.8223V7.07617C2.73633 6.69206 2.92513 6.5 3.30273 6.5H22.707C23.0846 6.5 23.2734 6.69206 23.2734 7.07617V16.8223C23.2734 17.2064 23.0846 17.3984 22.707 17.3984H3.30273C2.92513 17.3984 2.73633 17.2064 2.73633 16.8223ZM3.72266 16.1875C3.72266 16.3372 3.79427 16.4121 3.9375 16.4121H22.0625C22.2122 16.4121 22.2871 16.3372 22.2871 16.1875V7.71094C22.2871 7.5612 22.2122 7.48633 22.0625 7.48633H3.9375C3.79427 7.48633 3.72266 7.5612 3.72266 7.71094V16.1875ZM12.9609 17.3984C12.2773 17.3984 11.6556 17.1771 11.0957 16.7344C10.5358 16.2852 10.0898 15.6536 9.75781 14.8398C9.42578 14.0195 9.25977 13.0527 9.25977 11.9395C9.25977 10.8327 9.42578 9.8724 9.75781 9.05859C10.0898 8.24479 10.5358 7.61654 11.0957 7.17383C11.6556 6.72461 12.2773 6.5 12.9609 6.5C13.6641 6.5 14.3021 6.72461 14.875 7.17383C15.4479 7.61654 15.9036 8.24479 16.2422 9.05859C16.5807 9.8724 16.75 10.8327 16.75 11.9395C16.75 13.0527 16.5807 14.0195 16.2422 14.8398C15.9036 15.6536 15.4479 16.2852 14.875 16.7344C14.3021 17.1771 13.6641 17.3984 12.9609 17.3984ZM12.9609 16.2461C13.4427 16.2461 13.8854 16.0736 14.2891 15.7285C14.6927 15.377 15.015 14.8789 15.2559 14.2344C15.5033 13.5898 15.627 12.8249 15.627 11.9395C15.627 11.0605 15.5033 10.3021 15.2559 9.66406C15.015 9.01953 14.6927 8.52474 14.2891 8.17969C13.8854 7.82812 13.4427 7.65234 12.9609 7.65234C12.4987 7.65234 12.0723 7.82812 11.6816 8.17969C11.291 8.52474 10.9785 9.01953 10.7441 9.66406C10.5098 10.3021 10.3926 11.0605 10.3926 11.9395C10.3926 12.8249 10.5098 13.5898 10.7441 14.2344C10.9785 14.8789 11.291 15.377 11.6816 15.7285C12.0723 16.0736 12.4987 16.2461 12.9609 16.2461Z" fill="white"/>
</svg>
