<svg width="24" height="24" viewBox="0 0 24 24" fill="none" xmlns="http://www.w3.org/2000/svg">
<path d="M7.91797 6.1875C8.1849 6.1875 8.41602 6.25911 8.61133 6.40234C8.81315 6.53906 8.97591 6.7181 9.09961 6.93945C9.2168 6.7181 9.3763 6.53906 9.57812 6.40234C9.77995 6.25911 10.0046 6.1875 10.252 6.1875C10.6621 6.1875 11.0007 6.32747 11.2676 6.60742C11.5345 6.88737 11.668 7.24219 11.668 7.67188C11.668 7.99089 11.5931 8.30013 11.4434 8.59961C11.3001 8.89909 11.1113 9.18229 10.877 9.44922C10.6426 9.71615 10.3887 9.96029 10.1152 10.1816C9.84831 10.3965 9.59115 10.5788 9.34375 10.7285C9.29818 10.7611 9.25586 10.7904 9.2168 10.8164C9.17773 10.8359 9.14193 10.8457 9.10938 10.8457C9.07682 10.8457 9.03776 10.8359 8.99219 10.8164C8.94661 10.7904 8.90104 10.7611 8.85547 10.7285C8.61458 10.5658 8.35742 10.3737 8.08398 10.1523C7.81706 9.93099 7.56315 9.6901 7.32227 9.42969C7.08789 9.16276 6.89583 8.88281 6.74609 8.58984C6.59635 8.29688 6.52148 7.99089 6.52148 7.67188C6.52148 7.24219 6.65169 6.88737 6.91211 6.60742C7.17904 6.32747 7.51432 6.1875 7.91797 6.1875ZM7.13672 13.9023C6.96094 13.9023 6.81445 13.8438 6.69727 13.7266C6.58008 13.6094 6.52148 13.4661 6.52148 13.2969C6.52148 13.1276 6.58008 12.9876 6.69727 12.877C6.81445 12.7598 6.96094 12.7012 7.13672 12.7012H16.7559C16.9251 12.7012 17.0684 12.7598 17.1855 12.877C17.3027 12.9876 17.3613 13.1276 17.3613 13.2969C17.3613 13.4661 17.3027 13.6094 17.1855 13.7266C17.0684 13.8438 16.9251 13.9023 16.7559 13.9023H7.13672ZM7.13672 17.2422C6.96094 17.2422 6.81445 17.1868 6.69727 17.0762C6.58008 16.959 6.52148 16.8158 6.52148 16.6465C6.52148 16.4772 6.58008 16.334 6.69727 16.2168C6.81445 16.0996 6.96094 16.041 7.13672 16.041H14.1875C14.3568 16.041 14.5 16.0996 14.6172 16.2168C14.7344 16.334 14.793 16.4772 14.793 16.6465C14.793 16.8158 14.7344 16.959 14.6172 17.0762C14.5 17.1868 14.3568 17.2422 14.1875 17.2422H7.13672ZM6.07227 20.9434C5.05013 20.9434 4.2819 20.6895 3.76758 20.1816C3.25977 19.6803 3.00586 18.9284 3.00586 17.9258V5.99219C3.00586 4.98307 3.25977 4.22786 3.76758 3.72656C4.2819 3.21875 5.05013 2.96484 6.07227 2.96484H17.918C18.9401 2.96484 19.7051 3.21875 20.2129 3.72656C20.7272 4.23438 20.9844 4.98958 20.9844 5.99219V17.9258C20.9844 18.9284 20.7272 19.6803 20.2129 20.1816C19.7051 20.6895 18.9401 20.9434 17.918 20.9434H6.07227ZM6.0918 19.3711H17.8984C18.3802 19.3711 18.7513 19.2441 19.0117 18.9902C19.2786 18.7298 19.4121 18.3457 19.4121 17.8379V6.08008C19.4121 5.57227 19.2786 5.18815 19.0117 4.92773C18.7513 4.66732 18.3802 4.53711 17.8984 4.53711H6.0918C5.60352 4.53711 5.22917 4.66732 4.96875 4.92773C4.70833 5.18815 4.57812 5.57227 4.57812 6.08008V17.8379C4.57812 18.3457 4.70833 18.7298 4.96875 18.9902C5.22917 19.2441 5.60352 19.3711 6.0918 19.3711Z" fill="white"/>
</svg>
