<svg width="24" height="24" viewBox="0 0 24 24" fill="none" xmlns="http://www.w3.org/2000/svg">
<path d="M12.2441 21.666C11.9707 21.666 11.7363 21.5716 11.541 21.3828C11.3522 21.194 11.2578 20.9629 11.2578 20.6895V15.3965L6.38477 19.9082C6.17643 20.1035 5.94206 20.2044 5.68164 20.2109C5.42122 20.2174 5.16406 20.1035 4.91016 19.8691L3.26953 21.168C3.15885 21.2461 3.04167 21.2786 2.91797 21.2656C2.79427 21.2591 2.68034 21.2103 2.57617 21.1191L2.29297 20.8262C2.1888 20.7285 2.13346 20.6146 2.12695 20.4844C2.12044 20.3542 2.15625 20.2402 2.23438 20.1426L3.52344 18.502C3.28906 18.235 3.17513 17.9746 3.18164 17.7207C3.18815 17.4603 3.28906 17.2227 3.48438 17.0078L12.5469 7.26172C12.4818 6.6888 12.5599 6.11914 12.7812 5.55273C13.0091 4.98633 13.377 4.45247 13.8848 3.95117L19.4414 9.50781C18.9401 10.0221 18.403 10.3965 17.8301 10.6309C17.2572 10.8587 16.6875 10.9401 16.1211 10.875L13.2402 13.541L13.2305 20.6895C13.2305 20.9629 13.1328 21.194 12.9375 21.3828C12.7487 21.5716 12.5176 21.666 12.2441 21.666ZM4.67578 17.8477L5.56445 18.7266L14.4609 10.2598C14.3372 10.1816 14.2135 10.0905 14.0898 9.98633C13.9661 9.88216 13.849 9.77148 13.7383 9.6543C13.6211 9.53711 13.5137 9.41667 13.416 9.29297C13.3184 9.16276 13.2337 9.03255 13.1621 8.90234L4.67578 17.8477ZM14.9395 2.88672C15.5124 2.30729 16.1309 1.91341 16.7949 1.70508C17.459 1.49674 18.1198 1.48047 18.7773 1.65625C19.4414 1.83203 20.0599 2.19987 20.6328 2.75977C21.1992 3.33268 21.5703 3.95117 21.7461 4.61523C21.9219 5.2793 21.9023 5.94336 21.6875 6.60742C21.4792 7.27148 21.0853 7.88672 20.5059 8.45312L14.9395 2.88672Z" fill="white"/>
</svg>
